<?xml version="1.0" encoding="utf-8"?>
<!-- Generator: Adobe Illustrator 19.0.0, SVG Export Plug-In . SVG Version: 6.00 Build 0)  -->
<svg version="1.1" id="Layer_3" xmlns="http://www.w3.org/2000/svg" xmlns:xlink="http://www.w3.org/1999/xlink" x="0px" y="0px"
	 viewBox="-266 254 453.8 53" style="enable-background:new -266 254 453.8 53;" xml:space="preserve">
<style type="text/css">
	.st0{fill:#FFFFFF;}
</style>
<g>
	<g>
		<path class="st0" d="M-214.9,254.9c0,13.7-11.2,24.8-25,24.8v-12.4c6.9,0,12.5-5.5,12.5-12.4H-214.9L-214.9,254.9z"/>
		<path class="st0" d="M-265,304.4c0-13.7,11.2-24.8,25.1-24.8V292c-6.9,0-12.5,5.5-12.5,12.4H-265L-265,304.4z"/>
		<path class="st0" d="M-252.1,282.7c-0.2-1-0.4-2-0.4-3c0-6.9,5.6-12.4,12.5-12.4V255c-13.8,0-25,11.1-25,24.7c0,1,0.1,2,0.2,2.9
			H-252.1L-252.1,282.7z"/>
		<path class="st0" d="M-239.9,304.5c13.8,0,25-11.1,25-24.7c0-1.1-0.1-2.1-0.2-3.1h-12.6c0.2,1,0.4,2,0.4,3
			c0,6.9-5.6,12.4-12.6,12.4V304.5L-239.9,304.5z"/>
	</g>
	<g>
		<path class="st0" d="M-186,255.1c4.5,0,8.8,0.8,12,3.2c3.2,2.5,5.4,6.5,5.4,13.8c0,7-1.9,11.4-5.3,14.1c-3,2.4-7,3.3-12.3,3.3h-7
			v15.1h-11.6v-49.5H-186z M-193.3,279.4h6.7c2.3,0,3.7-0.4,4.5-1.3c1.1-1,1.4-2.9,1.4-5.9c0-3.7-0.6-5.3-1.6-6.2
			c-1-0.9-2.4-1.1-4.6-1.1h-6.5V279.4z"/>
		<path class="st0" d="M-141.3,255.1c4.6,0,8.6,0.7,11.6,2.7c3.2,2.1,5.5,5.4,5.5,11.5c0,6.8-2.7,12-9.3,13.7
			c6.2,1.1,8.1,7.2,9.6,21.7h-12.2c-1.8-13.3-2.8-16.8-7.2-16.8h-6.5v16.8h-11.6v-49.5H-141.3z M-149.9,278h5.2
			c5.5,0,8.4-1.2,8.4-7.5c0-2.4-0.4-3.7-1.4-4.6c-0.9-0.8-2.2-1-4.3-1h-8V278z"/>
		<path class="st0" d="M-82,300.1c-3.4,3.3-8.3,5.5-15.9,5.5c-7.5,0-12.5-2.1-15.7-5.5c-4.2-4.4-5.6-11-5.6-19.9
			c0-8.9,1.4-16.1,6.1-20.8c3.3-3.3,8.2-5.5,15.9-5.5c7.6,0,12.6,2.2,15.8,5.5c4.2,4.3,5.6,11,5.6,19.9
			C-75.9,288.3-77.3,295.4-82,300.1z M-90.8,266.2c-1.3-1.4-3.5-2.4-6.5-2.4c-3.2,0-5.5,0.9-7,2.7c-1.9,2.3-2.5,6-2.5,13.3
			c0,7.1,0.6,11.4,2.6,13.6c1.3,1.4,3.4,2.3,6.5,2.3c3.3,0,5.5-0.9,7-2.7c1.9-2.3,2.5-6,2.5-13.3C-88.3,272.4-88.9,268.3-90.8,266.2
			z"/>
		<path class="st0" d="M-62.2,255.1l9.8,36.4l9.7-36.4h12.2l-15.6,49.5h-13l-15.4-49.5H-62.2z"/>
		<path class="st0" d="M-13.8,255.1v49.5h-11.6v-49.5H-13.8z"/>
		<path class="st0" d="M21,266.9c-3-2.1-7.4-2.9-10.4-2.9c-3.5,0-5.8,0.9-5.8,4.8c0,7.5,22.7,3.1,22.7,21c0,5.7-2.7,9.8-6.2,12.1
			c-3.4,2.3-8,3.4-12.8,3.4c-5.2,0-12.3-1.3-16.4-4.9l5.7-8.5c3.2,2.6,8,3.7,11.8,3.7c3.4,0,6.2-0.9,6.2-5.2
			c0-8.5-22.7-3.7-22.7-21.3c0-5.2,2.3-8.6,5.6-11c3.6-2.7,8-3.9,12.9-3.9c4.7,0,11.1,1.1,14.9,4.3L21,266.9z"/>
		<path class="st0" d="M46.1,255.1v49.5H34.5v-49.5H46.1z"/>
		<path class="st0" d="M91.1,300.1c-3.4,3.3-8.3,5.5-15.9,5.5c-7.5,0-12.5-2.1-15.7-5.5c-4.2-4.4-5.6-11-5.6-19.9
			c0-8.9,1.4-16.1,6.1-20.8c3.3-3.3,8.2-5.5,15.9-5.5s12.6,2.2,15.8,5.5c4.2,4.3,5.6,11,5.6,19.9C97.2,288.3,95.9,295.4,91.1,300.1z
			 M82.3,266.2c-1.3-1.4-3.5-2.4-6.5-2.4c-3.2,0-5.5,0.9-7,2.7c-1.9,2.3-2.5,6-2.5,13.3c0,7.1,0.6,11.4,2.6,13.6
			c1.3,1.4,3.4,2.3,6.5,2.3c3.3,0,5.5-0.9,7-2.7c1.9-2.3,2.5-6,2.5-13.3C84.9,272.4,84.2,268.3,82.3,266.2z"/>
		<path class="st0" d="M119.8,255.1l15.8,33.8l-0.4-33.8h11.1v49.5h-14.7l-15.8-33.8l0.4,33.8h-11.1v-49.5H119.8z"/>
		<path class="st0" d="M181.3,266.9c-3-2.1-7.4-2.9-10.4-2.9c-3.5,0-5.8,0.9-5.8,4.8c0,7.5,22.7,3.1,22.7,21c0,5.7-2.7,9.8-6.2,12.1
			c-3.4,2.3-8,3.4-12.8,3.4c-5.2,0-12.3-1.3-16.4-4.9l5.7-8.5c3.2,2.6,8,3.7,11.8,3.7c3.4,0,6.2-0.9,6.2-5.2
			c0-8.5-22.7-3.7-22.7-21.3c0-5.2,2.3-8.6,5.6-11c3.6-2.7,8-3.9,12.9-3.9c4.7,0,11.1,1.1,14.9,4.3L181.3,266.9z"/>
	</g>
</g>
</svg>
