<?xml version="1.0" encoding="utf-8"?>
<!-- Generator: Adobe Illustrator 18.1.1, SVG Export Plug-In . SVG Version: 6.00 Build 0)  -->
<svg version="1.1" id="Layer_1" xmlns="http://www.w3.org/2000/svg" xmlns:xlink="http://www.w3.org/1999/xlink" x="0px" y="0px"
	 viewBox="0 0 452.7 49.5" enable-background="new 0 0 452.7 49.5" xml:space="preserve">
<g>
	<g>
		<path fill="#FFFFFF" d="M50-0.2c0,13.7-11.2,24.8-25,24.8V12.2c6.9,0,12.5-5.5,12.5-12.4H50L50-0.2z"/>
		<path fill="#FFFFFF" d="M-0.1,49.4c0-13.7,11.2-24.8,25.1-24.8V37c-6.9,0-12.5,5.5-12.5,12.4H-0.1L-0.1,49.4z"/>
		<path fill="#FFFFFF" d="M12.8,27.6c-0.2-1-0.4-2-0.4-3c0-6.9,5.6-12.4,12.5-12.4V0C11.2,0,0,11,0,24.7c0,1,0.1,2,0.2,2.9H12.8
			L12.8,27.6z"/>
		<path fill="#FFFFFF" d="M25,49.4c13.8,0,25-11.1,25-24.7c0-1.1-0.1-2.1-0.2-3.1H37.2c0.2,1,0.4,2,0.4,3C37.6,31.5,31.9,37,25,37
			V49.4L25,49.4z"/>
	</g>
	<g>
		<path fill="#FFFFFF" d="M79,0c4.5,0,8.8,0.8,12,3.2c3.2,2.5,5.4,6.5,5.4,13.8c0,7-1.9,11.4-5.3,14.1c-3,2.4-7,3.3-12.3,3.3h-7
			v15.1H60V0H79z M71.6,24.4h6.7c2.3,0,3.7-0.4,4.5-1.3c1.1-1,1.4-2.9,1.4-5.9c0-3.7-0.6-5.3-1.6-6.2c-1-0.9-2.4-1.1-4.6-1.1h-6.5
			V24.4z"/>
		<path fill="#FFFFFF" d="M123.6,0c4.6,0,8.6,0.7,11.6,2.7c3.2,2.1,5.5,5.4,5.5,11.5c0,6.8-2.7,12-9.3,13.7
			c6.2,1.1,8.1,7.2,9.6,21.7h-12.2c-1.8-13.3-2.8-16.8-7.2-16.8H115v16.8h-11.6V0H123.6z M115,23h5.2c5.5,0,8.4-1.2,8.4-7.5
			c0-2.4-0.4-3.7-1.4-4.6c-0.9-0.8-2.2-1-4.3-1h-8V23z"/>
		<path fill="#FFFFFF" d="M182.9,45c-3.4,3.3-8.3,5.5-15.9,5.5c-7.5,0-12.5-2.1-15.7-5.5c-4.2-4.4-5.6-11-5.6-19.9
			c0-8.9,1.4-16.1,6.1-20.8c3.3-3.3,8.2-5.5,15.9-5.5c7.6,0,12.6,2.2,15.8,5.5c4.2,4.3,5.6,11,5.6,19.9
			C189,33.3,187.6,40.3,182.9,45z M174.1,11.1c-1.3-1.4-3.5-2.4-6.5-2.4c-3.2,0-5.5,0.9-7,2.7c-1.9,2.3-2.5,6-2.5,13.3
			c0,7.1,0.6,11.4,2.6,13.6c1.3,1.4,3.4,2.3,6.5,2.3c3.3,0,5.5-0.9,7-2.7c1.9-2.3,2.5-6,2.5-13.3C176.6,17.4,176,13.3,174.1,11.1z"
			/>
		<path fill="#FFFFFF" d="M202.7,0l9.8,36.4L222.2,0h12.2l-15.6,49.5h-13L190.3,0H202.7z"/>
		<path fill="#FFFFFF" d="M251.1,0v49.5h-11.6V0H251.1z"/>
		<path fill="#FFFFFF" d="M286,11.8c-3-2.1-7.4-2.9-10.4-2.9c-3.5,0-5.8,0.9-5.8,4.8c0,7.5,22.7,3.1,22.7,21c0,5.7-2.7,9.8-6.2,12.1
			c-3.4,2.3-8,3.4-12.8,3.4c-5.2,0-12.3-1.3-16.4-4.9l5.7-8.5c3.2,2.6,8,3.7,11.8,3.7c3.4,0,6.2-0.9,6.2-5.2
			c0-8.5-22.7-3.7-22.7-21.3c0-5.2,2.3-8.6,5.6-11c3.6-2.7,8-3.9,12.9-3.9c4.7,0,11.1,1.1,14.9,4.3L286,11.8z"/>
		<path fill="#FFFFFF" d="M311,0v49.5h-11.6V0H311z"/>
		<path fill="#FFFFFF" d="M356,45c-3.4,3.3-8.3,5.5-15.9,5.5c-7.5,0-12.5-2.1-15.7-5.5c-4.2-4.4-5.6-11-5.6-19.9
			c0-8.9,1.4-16.1,6.1-20.8c3.3-3.3,8.2-5.5,15.9-5.5c7.6,0,12.6,2.2,15.8,5.5c4.2,4.3,5.6,11,5.6,19.9
			C362.1,33.3,360.8,40.3,356,45z M347.2,11.1c-1.3-1.4-3.5-2.4-6.5-2.4c-3.2,0-5.5,0.9-7,2.7c-1.9,2.3-2.5,6-2.5,13.3
			c0,7.1,0.6,11.4,2.6,13.6c1.3,1.4,3.4,2.3,6.5,2.3c3.3,0,5.5-0.9,7-2.7c1.9-2.3,2.5-6,2.5-13.3C349.8,17.4,349.1,13.3,347.2,11.1z
			"/>
		<path fill="#FFFFFF" d="M384.7,0l15.8,33.8L400.1,0h11.1v49.5h-14.7l-15.8-33.8l0.4,33.8H370V0H384.7z"/>
		<path fill="#FFFFFF" d="M446.2,11.8c-3-2.1-7.4-2.9-10.4-2.9c-3.5,0-5.8,0.9-5.8,4.8c0,7.5,22.7,3.1,22.7,21
			c0,5.7-2.7,9.8-6.2,12.1c-3.4,2.3-8,3.4-12.8,3.4c-5.2,0-12.3-1.3-16.4-4.9l5.7-8.5c3.2,2.6,8,3.7,11.8,3.7c3.4,0,6.2-0.9,6.2-5.2
			c0-8.5-22.7-3.7-22.7-21.3c0-5.2,2.3-8.6,5.6-11c3.6-2.7,8-3.9,12.9-3.9c4.7,0,11.1,1.1,14.9,4.3L446.2,11.8z"/>
	</g>
</g>
</svg>
